<svg width="136" height="51" viewBox="0 0 136 51" fill="none" xmlns="http://www.w3.org/2000/svg">
<path d="M16.308 47.18C13.452 47.18 10.968 46.664 8.856 45.632C6.744 44.576 5.124 43.088 3.996 41.168C2.868 39.248 2.304 37.016 2.304 34.472C2.304 30.944 2.964 27.812 4.284 25.076C5.628 22.34 7.44 20.228 9.72 18.74C12 17.228 14.532 16.472 17.316 16.472C19.908 16.472 21.876 17.144 23.22 18.488C24.564 19.808 25.236 21.56 25.236 23.744C25.236 25.208 24.972 26.384 24.444 27.272C23.94 28.16 23.208 28.604 22.248 28.604C21.576 28.604 21.048 28.448 20.664 28.136C20.28 27.824 20.088 27.368 20.088 26.768C20.088 26.552 20.136 26.156 20.232 25.58C20.376 24.86 20.448 24.284 20.448 23.852C20.448 21.668 19.284 20.576 16.956 20.576C15.372 20.576 13.86 21.092 12.42 22.124C10.98 23.156 9.816 24.68 8.928 26.696C8.04 28.688 7.596 31.064 7.596 33.824C7.596 36.704 8.4 38.936 10.008 40.52C11.616 42.08 13.992 42.86 17.136 42.86C18.696 42.86 20.268 42.668 21.852 42.284C23.46 41.876 25.236 41.264 27.18 40.448C27.54 40.304 27.84 40.232 28.08 40.232C28.464 40.232 28.752 40.376 28.944 40.664C29.136 40.952 29.232 41.324 29.232 41.78C29.232 43.244 28.44 44.324 26.856 45.02C25.152 45.764 23.376 46.316 21.528 46.676C19.704 47.012 17.964 47.18 16.308 47.18ZM30.8357 47.18C29.3477 47.18 28.1597 46.64 27.2717 45.56C26.3837 44.48 25.9397 43.064 25.9397 41.312C25.9397 39.392 26.3837 37.58 27.2717 35.876C28.1597 34.148 29.3357 32.768 30.7997 31.736C32.2877 30.68 33.8597 30.152 35.5157 30.152C36.0437 30.152 36.3917 30.26 36.5597 30.476C36.7517 30.668 36.9077 31.028 37.0277 31.556C37.5317 31.46 38.0597 31.412 38.6117 31.412C39.7877 31.412 40.3757 31.832 40.3757 32.672C40.3757 33.176 40.1957 34.376 39.8357 36.272C39.2837 39.032 39.0077 40.952 39.0077 42.032C39.0077 42.392 39.0917 42.68 39.2597 42.896C39.4517 43.112 39.6917 43.22 39.9797 43.22C40.4357 43.22 40.9877 42.932 41.6357 42.356C42.2837 41.756 43.1597 40.796 44.2637 39.476C44.5517 39.14 44.8757 38.972 45.2357 38.972C45.5477 38.972 45.7877 39.116 45.9557 39.404C46.1477 39.692 46.2437 40.088 46.2437 40.592C46.2437 41.552 46.0157 42.296 45.5597 42.824C44.5757 44.048 43.5317 45.08 42.4277 45.92C41.3237 46.76 40.2557 47.18 39.2237 47.18C38.4317 47.18 37.6997 46.916 37.0277 46.388C36.3797 45.836 35.8877 45.092 35.5517 44.156C34.3037 46.172 32.7317 47.18 30.8357 47.18ZM32.1317 43.544C32.6597 43.544 33.1637 43.232 33.6437 42.608C34.1237 41.984 34.4717 41.156 34.6877 40.124L36.0197 33.5C35.0117 33.524 34.0757 33.908 33.2117 34.652C32.3717 35.372 31.6997 36.332 31.1957 37.532C30.6917 38.732 30.4397 40.004 30.4397 41.348C30.4397 42.092 30.5837 42.644 30.8717 43.004C31.1837 43.364 31.6037 43.544 32.1317 43.544ZM50.0138 47.972C48.7658 47.972 47.8058 47.684 47.1338 47.108C46.4858 46.532 46.1618 45.884 46.1618 45.164C46.1618 44.54 46.3898 44 46.8458 43.544C47.3018 43.088 47.9738 42.86 48.8618 42.86C49.1738 42.86 49.5338 42.896 49.9418 42.968C50.3738 43.016 50.6978 43.052 50.9138 43.076C50.8898 42.452 50.7458 41.864 50.4818 41.312C50.2418 40.76 49.9298 40.232 49.5458 39.728C49.1618 39.2 48.8018 38.744 48.4658 38.36C47.7218 39.776 46.9778 40.952 46.2338 41.888C45.5138 42.824 44.7218 43.712 43.8578 44.552C43.4258 44.984 42.9698 45.2 42.4898 45.2C42.1058 45.2 41.7938 45.068 41.5538 44.804C41.3138 44.516 41.1938 44.168 41.1938 43.76C41.1938 43.28 41.3618 42.836 41.6978 42.428L42.1658 41.852C43.4858 40.22 44.4818 38.876 45.1538 37.82C45.5618 37.124 46.0418 36.2 46.5938 35.048C47.1458 33.872 47.6858 32.66 48.2138 31.412C48.6698 30.356 49.6178 29.828 51.0578 29.828C51.7298 29.828 52.1978 29.888 52.4618 30.008C52.7258 30.128 52.8578 30.32 52.8578 30.584C52.8578 30.728 52.8098 30.956 52.7138 31.268C52.6178 31.58 52.4858 31.892 52.3178 32.204C51.8858 33.068 51.6698 33.8 51.6698 34.4C51.6698 34.76 51.7898 35.156 52.0298 35.588C52.2938 36.02 52.6898 36.56 53.2178 37.208C53.9858 38.216 54.5618 39.08 54.9458 39.8C55.3538 40.496 55.5578 41.264 55.5578 42.104C55.5578 42.344 55.5338 42.68 55.4858 43.112C56.6618 42.656 58.0418 41.444 59.6258 39.476C59.9138 39.14 60.2378 38.972 60.5978 38.972C60.9098 38.972 61.1498 39.116 61.3178 39.404C61.5098 39.692 61.6058 40.088 61.6058 40.592C61.6058 41.504 61.3778 42.248 60.9218 42.824C59.7218 44.312 58.5698 45.332 57.4658 45.884C56.3858 46.412 55.0418 46.7 53.4338 46.748C52.4738 47.564 51.3338 47.972 50.0138 47.972ZM78.6611 38.972C78.9731 38.972 79.2131 39.116 79.3811 39.404C79.5731 39.692 79.6691 40.088 79.6691 40.592C79.6691 41.552 79.4411 42.296 78.9851 42.824C77.8811 44.096 76.7411 45.14 75.5651 45.956C74.4131 46.772 73.0931 47.18 71.6051 47.18C70.3811 47.18 69.4571 46.832 68.8331 46.136C68.2091 45.416 67.8971 44.384 67.8971 43.04C67.8971 42.368 68.0651 41.168 68.4011 39.44C68.7131 37.928 68.8691 36.884 68.8691 36.308C68.8691 35.924 68.7371 35.732 68.4731 35.732C68.1611 35.732 67.7171 36.14 67.1411 36.956C66.5651 37.748 65.9891 38.804 65.4131 40.124C64.8371 41.444 64.3691 42.836 64.0091 44.3C63.5531 46.22 62.4251 47.18 60.6251 47.18C59.9051 47.18 59.4251 46.928 59.1851 46.424C58.9691 45.896 58.8611 44.96 58.8611 43.616C58.8611 42.848 58.8731 42.236 58.8971 41.78L58.9331 38.9C58.9331 35.204 59.3051 31.352 60.0491 27.344C60.8171 23.336 61.9331 19.976 63.3971 17.264C64.8851 14.528 66.6611 13.16 68.7251 13.16C69.8291 13.16 70.7171 13.64 71.3891 14.6C72.0851 15.536 72.4331 16.76 72.4331 18.272C72.4331 20.696 71.7251 23.216 70.3091 25.832C68.8931 28.424 66.5891 31.46 63.3971 34.94C63.3251 36.188 63.2891 37.472 63.2891 38.792C64.0811 36.752 64.9571 35.096 65.9171 33.824C66.9011 32.528 67.8611 31.604 68.7971 31.052C69.7571 30.5 70.6331 30.224 71.4251 30.224C72.9851 30.224 73.7651 31.004 73.7651 32.564C73.7651 33.5 73.5011 35.192 72.9731 37.64C72.5171 39.728 72.2891 41.108 72.2891 41.78C72.2891 42.74 72.6371 43.22 73.3331 43.22C73.8131 43.22 74.3771 42.932 75.0251 42.356C75.6971 41.756 76.5851 40.796 77.6891 39.476C77.9771 39.14 78.3011 38.972 78.6611 38.972ZM67.9691 16.724C67.5371 16.724 67.0571 17.348 66.5291 18.596C66.0011 19.82 65.4851 21.488 64.9811 23.6C64.5011 25.688 64.1051 27.968 63.7931 30.44C65.2811 28.688 66.5051 26.78 67.4651 24.716C68.4491 22.652 68.9411 20.78 68.9411 19.1C68.9411 18.332 68.8571 17.744 68.6891 17.336C68.5211 16.928 68.2811 16.724 67.9691 16.724ZM92.8074 38.972C93.1194 38.972 93.3594 39.116 93.5274 39.404C93.7194 39.692 93.8154 40.088 93.8154 40.592C93.8154 41.552 93.5874 42.296 93.1314 42.824C92.0994 44.096 90.9714 45.14 89.7474 45.956C88.5234 46.772 87.1194 47.18 85.5354 47.18C80.6394 47.18 78.1914 43.736 78.1914 36.848C78.1914 35.792 78.2274 34.724 78.2994 33.644H76.8954C76.1754 33.644 75.6834 33.512 75.4194 33.248C75.1794 32.984 75.0594 32.564 75.0594 31.988C75.0594 30.644 75.5994 29.972 76.6794 29.972H78.7314C79.1394 27.332 79.7634 24.92 80.6034 22.736C81.4434 20.552 82.4514 18.812 83.6274 17.516C84.8274 16.22 86.1114 15.572 87.4794 15.572C88.4874 15.572 89.2794 16.016 89.8554 16.904C90.4314 17.792 90.7194 18.908 90.7194 20.252C90.7194 23.972 89.1594 27.212 86.0394 29.972H90.0714C90.4554 29.972 90.7314 30.056 90.8994 30.224C91.0674 30.392 91.1514 30.704 91.1514 31.16C91.1514 32.816 89.7954 33.644 87.0834 33.644H82.6914C82.6434 34.844 82.6194 35.78 82.6194 36.452C82.6194 38.948 82.9074 40.7 83.4834 41.708C84.0834 42.716 85.0194 43.22 86.2914 43.22C87.3234 43.22 88.2354 42.908 89.0274 42.284C89.8194 41.66 90.7554 40.724 91.8354 39.476C92.1234 39.14 92.4474 38.972 92.8074 38.972ZM86.5074 19.028C86.1474 19.028 85.7394 19.484 85.2834 20.396C84.8514 21.284 84.4314 22.532 84.0234 24.14C83.6394 25.724 83.3154 27.488 83.0514 29.432C84.4674 28.208 85.5234 26.84 86.2194 25.328C86.9394 23.792 87.2994 22.4 87.2994 21.152C87.2994 19.736 87.0354 19.028 86.5074 19.028ZM95.3123 47.18C93.8243 47.18 92.6362 46.64 91.7482 45.56C90.8603 44.48 90.4163 43.064 90.4163 41.312C90.4163 39.392 90.8603 37.58 91.7482 35.876C92.6362 34.148 93.8122 32.768 95.2763 31.736C96.7643 30.68 98.3362 30.152 99.9922 30.152C100.52 30.152 100.868 30.26 101.036 30.476C101.228 30.668 101.384 31.028 101.504 31.556C102.008 31.46 102.536 31.412 103.088 31.412C104.264 31.412 104.852 31.832 104.852 32.672C104.852 33.176 104.672 34.376 104.312 36.272C103.76 39.032 103.484 40.952 103.484 42.032C103.484 42.392 103.568 42.68 103.736 42.896C103.928 43.112 104.168 43.22 104.456 43.22C104.912 43.22 105.464 42.932 106.112 42.356C106.76 41.756 107.636 40.796 108.74 39.476C109.028 39.14 109.352 38.972 109.712 38.972C110.024 38.972 110.264 39.116 110.432 39.404C110.624 39.692 110.72 40.088 110.72 40.592C110.72 41.552 110.492 42.296 110.036 42.824C109.052 44.048 108.008 45.08 106.904 45.92C105.8 46.76 104.732 47.18 103.7 47.18C102.908 47.18 102.176 46.916 101.504 46.388C100.856 45.836 100.364 45.092 100.028 44.156C98.7802 46.172 97.2083 47.18 95.3123 47.18ZM96.6083 43.544C97.1362 43.544 97.6402 43.232 98.1202 42.608C98.6003 41.984 98.9483 41.156 99.1642 40.124L100.496 33.5C99.4883 33.524 98.5523 33.908 97.6883 34.652C96.8482 35.372 96.1762 36.332 95.6722 37.532C95.1682 38.732 94.9162 40.004 94.9162 41.348C94.9162 42.092 95.0603 42.644 95.3483 43.004C95.6603 43.364 96.0803 43.544 96.6083 43.544ZM114.49 47.972C113.242 47.972 112.282 47.684 111.61 47.108C110.962 46.532 110.638 45.884 110.638 45.164C110.638 44.54 110.866 44 111.322 43.544C111.778 43.088 112.45 42.86 113.338 42.86C113.65 42.86 114.01 42.896 114.418 42.968C114.85 43.016 115.174 43.052 115.39 43.076C115.366 42.452 115.222 41.864 114.958 41.312C114.718 40.76 114.406 40.232 114.022 39.728C113.638 39.2 113.278 38.744 112.942 38.36C112.198 39.776 111.454 40.952 110.71 41.888C109.99 42.824 109.198 43.712 108.334 44.552C107.902 44.984 107.446 45.2 106.966 45.2C106.582 45.2 106.27 45.068 106.03 44.804C105.79 44.516 105.67 44.168 105.67 43.76C105.67 43.28 105.838 42.836 106.174 42.428L106.642 41.852C107.962 40.22 108.958 38.876 109.63 37.82C110.038 37.124 110.518 36.2 111.07 35.048C111.622 33.872 112.162 32.66 112.69 31.412C113.146 30.356 114.094 29.828 115.534 29.828C116.206 29.828 116.674 29.888 116.938 30.008C117.202 30.128 117.334 30.32 117.334 30.584C117.334 30.728 117.286 30.956 117.19 31.268C117.094 31.58 116.962 31.892 116.794 32.204C116.362 33.068 116.146 33.8 116.146 34.4C116.146 34.76 116.266 35.156 116.506 35.588C116.77 36.02 117.166 36.56 117.694 37.208C118.462 38.216 119.038 39.08 119.422 39.8C119.83 40.496 120.034 41.264 120.034 42.104C120.034 42.344 120.01 42.68 119.962 43.112C121.138 42.656 122.518 41.444 124.102 39.476C124.39 39.14 124.714 38.972 125.074 38.972C125.386 38.972 125.626 39.116 125.794 39.404C125.986 39.692 126.082 40.088 126.082 40.592C126.082 41.504 125.854 42.248 125.398 42.824C124.198 44.312 123.046 45.332 121.942 45.884C120.862 46.412 119.518 46.7 117.91 46.748C116.95 47.564 115.81 47.972 114.49 47.972ZM135.758 30.224C136.31 30.224 136.694 30.296 136.91 30.44C137.126 30.584 137.234 30.824 137.234 31.16C137.234 31.736 136.922 33.788 136.298 37.316C135.746 40.7 135.422 42.704 135.326 43.328C134.438 49.496 133.214 54.38 131.654 57.98C130.094 61.58 128.018 63.38 125.426 63.38C124.202 63.38 123.206 62.996 122.438 62.228C121.67 61.484 121.286 60.5 121.286 59.276C121.286 58.148 121.538 56.996 122.042 55.82C122.57 54.644 123.53 53.288 124.922 51.752C126.338 50.24 128.33 48.5 130.898 46.532L131.006 45.704C131.174 44.816 131.366 43.544 131.582 41.888C131.102 43.616 130.43 44.936 129.566 45.848C128.702 46.736 127.79 47.18 126.83 47.18C125.75 47.18 124.862 46.688 124.166 45.704C123.494 44.696 123.158 43.448 123.158 41.96C123.158 40.16 123.278 38.516 123.518 37.028C123.758 35.516 124.154 33.92 124.706 32.24C124.946 31.52 125.282 31.004 125.714 30.692C126.146 30.38 126.83 30.224 127.766 30.224C128.294 30.224 128.654 30.308 128.846 30.476C129.062 30.644 129.17 30.896 129.17 31.232C129.17 31.424 129.038 32.072 128.774 33.176C128.534 34.064 128.342 34.868 128.198 35.588C128.006 36.572 127.838 37.52 127.694 38.432C127.55 39.32 127.478 40.052 127.478 40.628C127.478 41.54 127.73 41.996 128.234 41.996C128.594 41.996 129.038 41.636 129.566 40.916C130.118 40.196 130.694 39.104 131.294 37.64C131.918 36.176 132.518 34.376 133.094 32.24C133.286 31.52 133.574 31.004 133.958 30.692C134.366 30.38 134.966 30.224 135.758 30.224ZM125.822 59.888C126.422 59.888 127.094 59.192 127.838 57.8C128.582 56.408 129.326 54.092 130.07 50.852C128.222 52.412 126.878 53.828 126.038 55.1C125.222 56.396 124.814 57.524 124.814 58.484C124.814 58.892 124.886 59.228 125.03 59.492C125.198 59.756 125.462 59.888 125.822 59.888Z" transform="translate(-2 -13)" fill="white"/>
</svg>
