<svg width="20" height="20" viewBox="0 0 20 20" fill="none" xmlns="http://www.w3.org/2000/svg">
<path id="log-out-icon" fill-rule="evenodd" clip-rule="evenodd" d="M8.8623 19.1714C9.4624 19.1714 10.001 18.3827 10.001 17.3505V16.9362H10.7642V17.3505C10.7642 18.7957 9.94189 20 8.8623 20H1.90186C0.826172 20 0 18.7875 0 17.3505V2.64954C0 1.20435 0.822266 0 1.90186 0H8.8623C9.93799 0 10.7642 1.21252 10.7642 2.64954V3.06384H10.001V2.64954C10.001 1.62537 9.45801 0.828613 8.8623 0.828613H1.90186C1.30176 0.828613 0.763184 1.61731 0.763184 2.64954V17.3505C0.763184 18.3746 1.30615 19.1714 1.90186 19.1714H8.8623ZM14.1758 4.84802L18.0098 9.01099H6.09912V9.8396H18.7729L18.9209 10L14.1758 15.152L14.7153 15.7379L19.4604 10.5859L20 10L19.4604 9.41406L14.7153 4.26208L14.1758 4.84802Z" fill="white"/>
</svg>
