<svg width="20" height="20" viewBox="0 0 20 20" fill="none" xmlns="http://www.w3.org/2000/svg">
<path id="dashboard-icon" fill-rule="evenodd" clip-rule="evenodd" d="M7.22217 0H1.6665C0.746094 0 0 0.746216 0 1.66663V7.22217C0 8.1427 0.746094 8.88892 1.6665 8.88892H7.22217C8.14258 8.88892 8.88867 8.1427 8.88867 7.22217V1.66663C8.88867 0.746216 8.14258 0 7.22217 0ZM1.11133 1.66663C1.11133 1.35986 1.35986 1.11108 1.66699 1.11108H7.22266C7.5293 1.11108 7.77783 1.35986 7.77783 1.66663V7.22217C7.77783 7.52905 7.5293 7.77771 7.22266 7.77771H1.66699C1.35986 7.77771 1.11133 7.52905 1.11133 7.22217V1.66663ZM12.7778 1.11108C12.4707 1.11108 12.2222 1.35986 12.2222 1.66663V7.22217C12.2222 7.52905 12.4707 7.77771 12.7778 7.77771H18.3335C18.6401 7.77771 18.8887 7.52905 18.8887 7.22217V1.66663C18.8887 1.35986 18.6401 1.11108 18.3335 1.11108H12.7778ZM18.3335 0H12.7778C11.8574 0 11.1113 0.746216 11.1113 1.66663V7.22217C11.1113 8.1427 11.8574 8.88892 12.7778 8.88892H18.3335C19.2539 8.88892 20 8.1427 20 7.22217V1.66663C20 0.746216 19.2539 0 18.3335 0ZM1.66699 12.2222C1.35986 12.2222 1.11133 12.4709 1.11133 12.7777V18.3333C1.11133 18.6401 1.35986 18.8888 1.66699 18.8888H7.22266C7.5293 18.8888 7.77783 18.6401 7.77783 18.3333V12.7777C7.77783 12.4709 7.5293 12.2222 7.22266 12.2222H1.66699ZM7.22217 11.1111H1.6665C0.746094 11.1111 0 11.8573 0 12.7777V18.3333C0 19.2538 0.746094 20 1.6665 20H7.22217C8.14258 20 8.88867 19.2538 8.88867 18.3333V12.7777C8.88867 11.8573 8.14258 11.1111 7.22217 11.1111ZM12.7778 12.2222C12.4707 12.2222 12.2222 12.4709 12.2222 12.7777V18.3333C12.2222 18.6401 12.4707 18.8888 12.7778 18.8888H18.3335C18.6401 18.8888 18.8887 18.6401 18.8887 18.3333V12.7777C18.8887 12.4709 18.6401 12.2222 18.3335 12.2222H12.7778ZM18.3335 11.1111H12.7778C11.8574 11.1111 11.1113 11.8573 11.1113 12.7777V18.3333C11.1113 19.2538 11.8574 20 12.7778 20H18.3335C19.2539 20 20 19.2538 20 18.3333V12.7777C20 11.8573 19.2539 11.1111 18.3335 11.1111Z" fill="white"/>
</svg>
